HIERARCHY
ROOT Hips
{
	OFFSET 0.000000 0.000000 0.000000
	CHANNELS 6 Xposition Yposition Zposition Xrotation Yrotation Zrotation
	JOINT LeftUpLeg_virtual
	{
		OFFSET 0.000000 0.000000 0.000000
		CHANNELS 3 Xrotation Yrotation Zrotation
		JOINT LeftUpLeg
		{
			OFFSET 11.394100 -6.187798 -0.413800
			CHANNELS 3 Xrotation Yrotation Zrotation
			JOINT LeftLeg
			{
				OFFSET 0.430247 -32.302673 3.732800
				CHANNELS 3 Xrotation Yrotation Zrotation
				JOINT LeftFoot
				{
					OFFSET -0.430247 -48.264931 -6.423300
					CHANNELS 3 Xrotation Yrotation Zrotation
					JOINT LeftToeBase
					{
						OFFSET 4.230900 -16.068199 23.438400
						CHANNELS 3 Xrotation Yrotation Zrotation
						JOINT LeftToe_End
						{
							OFFSET 4.510700 0.695400 19.974600
							CHANNELS 3 Xrotation Yrotation Zrotation
							End Site
							{
								OFFSET 0 0 0
							}
						}
					}
				}
			}
		}
	}
	JOINT RightUpLeg_virtual
	{
		OFFSET 0.000000 0.000000 0.000000
		CHANNELS 3 Xrotation Yrotation Zrotation
		JOINT RightUpLeg
		{
			OFFSET -11.333700 -6.187798 -0.413800
			CHANNELS 3 Xrotation Yrotation Zrotation
			JOINT RightLeg
			{
				OFFSET -0.430392 -32.302628 3.733000
				CHANNELS 3 Xrotation Yrotation Zrotation
				JOINT RightFoot
				{
					OFFSET 0.430392 -48.264973 -6.423500
					CHANNELS 3 Xrotation Yrotation Zrotation
					JOINT RightToeBase
					{
						OFFSET -4.230900 -16.068199 23.438400
						CHANNELS 3 Xrotation Yrotation Zrotation
						JOINT RightToe_End
						{
							OFFSET -4.510700 0.695400 19.974600
							CHANNELS 3 Xrotation Yrotation Zrotation
							End Site
							{
								OFFSET 0 0 0
							}
						}
					}
				}
			}
		}
	}
	JOINT Spine_virtual
	{
		OFFSET 0.000000 0.000000 0.000000
		CHANNELS 3 Xrotation Yrotation Zrotation
		JOINT Spine
		{
			OFFSET -0.002400 12.777504 0.315300
			CHANNELS 3 Xrotation Yrotation Zrotation
			JOINT Spine1
			{
				OFFSET -0.002067 5.816869 0.032633
				CHANNELS 3 Xrotation Yrotation Zrotation
				JOINT Spine1_split
				{
					OFFSET -0.002067 5.816869 0.032633
					CHANNELS 3 Xrotation Yrotation Zrotation
					JOINT Spine2
					{
						OFFSET -0.002067 5.816869 0.032633
						CHANNELS 3 Xrotation Yrotation Zrotation
						JOINT Neck_virtual
						{
							OFFSET 0.000000 0.000000 0.000000
							CHANNELS 3 Xrotation Yrotation Zrotation
							JOINT Neck
							{
								OFFSET -0.003700 21.199493 -0.826900
								CHANNELS 3 Xrotation Yrotation Zrotation
								JOINT Head
								{
									OFFSET 0.000000 20.442200 4.834800
									CHANNELS 3 Xrotation Yrotation Zrotation
									JOINT HeadTop_End
									{
										OFFSET 0.000000 34.668396 4.968400
										CHANNELS 3 Xrotation Yrotation Zrotation
										End Site
										{
											OFFSET 0 0 0
										}
									}
								}
							}
						}
						JOINT LeftShoulder_virtual
						{
							OFFSET 0.000000 0.000000 0.000000
							CHANNELS 3 Xrotation Yrotation Zrotation
							JOINT LeftShoulder
							{
								OFFSET 3.288150 8.794197 -1.372250
								CHANNELS 3 Xrotation Yrotation Zrotation
								JOINT LeftShoulder_split
								{
									OFFSET 3.288150 8.794197 -1.372250
									CHANNELS 3 Xrotation Yrotation Zrotation
									JOINT LeftArm
									{
										OFFSET 11.953299 -2.279007 -0.146200
										CHANNELS 3 Xrotation Yrotation Zrotation
										JOINT LeftForeArm
										{
											OFFSET 18.448900 0.000000 0.000000
											CHANNELS 3 Xrotation Yrotation Zrotation
											JOINT LeftHand
											{
												OFFSET 29.527798 0.000000 0.000000
												CHANNELS 3 Xrotation Yrotation Zrotation
												End Site
												{
													OFFSET 0 0 0
												}
											}
										}
									}
								}
							}
						}
						JOINT RightShoulder_virtual
						{
							OFFSET 0.000000 0.000000 0.000000
							CHANNELS 3 Xrotation Yrotation Zrotation
							JOINT RightShoulder
							{
								OFFSET -3.249400 8.794197 -1.372250
								CHANNELS 3 Xrotation Yrotation Zrotation
								JOINT RightShoulder_split
								{
									OFFSET -3.249400 8.794197 -1.372250
									CHANNELS 3 Xrotation Yrotation Zrotation
									JOINT RightArm
									{
										OFFSET -11.953299 -2.279007 -0.146200
										CHANNELS 3 Xrotation Yrotation Zrotation
										JOINT RightForeArm
										{
											OFFSET -18.448900 0.000000 0.000000
											CHANNELS 3 Xrotation Yrotation Zrotation
											JOINT RightHand
											{
												OFFSET -29.527802 0.000000 0.000000
												CHANNELS 3 Xrotation Yrotation Zrotation
												End Site
												{
													OFFSET 0 0 0
												}
											}
										}
									}
								}
							}
						}
					}
				}
			}
		}
	}
}
MOTION
Frames: 6
Frame Time: 0.03333333
9.402685 90.944939 -19.853338 0.000000 0.000000 0.000000 8.971307 12.697007 -1.057599 -3.483137 10.488246 9.897948 44.156087 -0.715406 4.613517 -0.573813 -8.025569 -15.583657 -21.660507 0.316224 -1.892208 0.000000 0.000000 0.000000 8.179231 11.578524 -0.909323 -49.512014 -10.404747 -7.236781 44.943307 -2.869168 -1.572430 -3.545306 3.759563 -1.703256 -2.299409 0.796357 0.167635 0.000000 0.000000 0.000000 9.138752 10.415866 -0.531452 0.669941 -3.863575 -1.329286 2.697534 -2.167716 2.213956 -0.777535 0.830488 0.075261 0.000000 0.000000 0.000000 2.628011 -2.671997 2.378602 -3.188241 1.111193 2.409067 -8.873251 3.915739 7.043329 0.000000 0.000000 0.000000 1.106820 -2.323754 2.662534 0.568220 2.893875 -0.532689 2.578084 -4.560889 7.000830 -40.510579 -10.737762 -35.787309 173.979945 -64.036350 174.798529 0.000000 0.000000 0.000000 1.206063 -3.005647 2.151353 -0.642944 -18.856708 5.950083 -2.263197 7.942947 -3.217615 -34.498766 9.068575 54.650727 -170.807854 62.510916 173.242981 0.000000 0.000000 0.000000 
9.654812 93.078423 -20.908148 0.000000 0.000000 0.000000 10.727341 13.053934 -1.994758 -16.194431 8.691874 13.466260 57.145952 -0.942254 3.756723 6.460507 -8.216304 -12.793188 -10.868792 0.605719 -4.588904 0.000000 0.000000 0.000000 8.893361 11.010269 -1.391996 -46.541302 -11.398478 -6.972736 42.076742 -1.990779 -1.382435 -4.278640 4.192124 -0.660269 -6.285343 0.506349 -0.608793 0.000000 0.000000 0.000000 10.123485 9.506946 -0.984037 4.976127 -3.258948 -1.092096 2.704289 -1.764680 1.238422 0.249051 0.964122 0.097245 0.000000 0.000000 0.000000 2.491846 -2.273378 1.730421 -3.948127 1.012416 0.943274 -12.982279 1.132854 8.626205 0.000000 0.000000 0.000000 1.188136 -1.925685 1.897700 0.729754 1.872018 10.961478 2.556010 -2.218817 2.756867 -56.628511 -10.005610 -34.394162 174.871667 -67.745627 174.772602 0.000000 0.000000 0.000000 1.338487 -2.421830 1.351172 -2.430205 -17.715656 -2.121267 -1.443371 5.867694 -3.680998 -52.817791 4.368011 57.396928 -171.117467 65.863453 172.310769 0.000000 0.000000 0.000000 
9.589465 94.724899 -21.359026 0.000000 0.000000 0.000000 12.091759 12.008179 -1.928455 -28.628224 7.794310 16.215016 68.043137 -0.084356 2.007277 11.084548 -6.132628 -6.801728 -1.051693 0.317094 -6.481479 0.000000 0.000000 0.000000 9.843785 9.803050 -1.381527 -44.134784 -11.730604 -7.363621 40.501137 -2.559369 -0.758694 -5.306323 3.807422 -1.039877 -10.372006 -0.048356 -0.723047 0.000000 0.000000 0.000000 11.165229 8.141169 -0.849975 8.514014 -2.564074 -1.594604 3.027498 -1.399014 0.412962 1.110937 1.031846 0.094539 0.000000 0.000000 0.000000 2.905809 -1.855486 1.212519 -5.018564 0.957253 -0.224707 -17.795549 -1.220461 9.751482 0.000000 0.000000 0.000000 1.656984 -1.574403 1.213919 0.983223 1.237895 21.358321 2.460360 0.635354 -0.424786 -69.482490 -9.531933 -30.414993 173.781008 -74.779520 173.239129 0.000000 0.000000 0.000000 2.018304 -1.873733 0.608742 -3.818144 -15.960935 -10.141008 -0.387168 2.770698 -3.865890 -66.102202 -1.930230 56.819961 -172.500935 69.774849 171.743399 0.000000 0.000000 0.000000 
9.267008 96.068092 -21.506422 0.000000 0.000000 0.000000 13.006169 9.696138 -0.833670 -39.664859 8.208626 17.744714 75.010442 0.953431 0.078174 13.501387 -3.612690 0.215568 2.001022 -0.111438 -6.080528 0.000000 0.000000 0.000000 11.059557 7.751510 -0.801607 -42.770624 -11.362359 -8.433607 39.263233 -4.016976 0.175633 -5.223896 2.938741 -1.987524 -13.484822 -0.729137 -0.237487 0.000000 0.000000 0.000000 12.163110 6.482215 -0.183069 10.540392 -1.899422 -2.609876 3.527475 -1.121803 -0.017356 1.158074 0.668714 0.352299 0.000000 0.000000 0.000000 3.672971 -1.464731 1.037434 -6.264548 0.936767 -0.787899 -22.141317 -2.827300 10.461529 0.000000 0.000000 0.000000 2.327509 -1.279703 0.907842 1.068189 1.193882 28.431279 2.193317 2.931862 -3.293672 -77.148920 -9.737273 -25.762983 169.114992 -82.116735 168.910674 0.000000 0.000000 0.000000 3.002331 -1.476551 0.150064 -4.376439 -13.931098 -16.147259 0.439844 -0.096533 -3.111916 -71.831590 -7.049531 54.371243 -175.155365 73.001513 172.218234 0.000000 0.000000 0.000000 
8.702116 97.273079 -21.300276 0.000000 0.000000 0.000000 13.678236 6.977769 0.482471 -48.993657 9.596887 17.950004 77.629089 1.784817 -1.336023 14.869609 -1.919167 5.856468 -0.092050 -0.463948 -4.249412 0.000000 0.000000 0.000000 12.458130 5.082968 0.256354 -42.055012 -10.261106 -9.621314 36.876065 -5.101847 0.891717 -3.942709 2.629882 -2.100601 -14.419764 -1.202951 0.341640 0.000000 0.000000 0.000000 13.483972 4.832258 0.487104 10.743942 -1.224346 -3.744375 4.094270 -0.935959 0.068801 0.756081 0.177270 0.484412 0.000000 0.000000 0.000000 4.421842 -1.157870 1.257778 -7.590160 0.922702 -0.651138 -25.208505 -3.556601 10.920750 0.000000 0.000000 0.000000 2.880971 -0.982636 1.067008 0.886492 1.875368 30.069075 1.571741 3.132832 -4.914462 -77.822670 -9.547765 -22.265568 163.629626 -85.252072 164.216859 0.000000 0.000000 0.000000 4.010014 -1.202109 0.141831 -4.069174 -12.003203 -18.500563 0.824494 -1.174521 -2.146518 -69.928774 -9.902981 52.225303 -178.829775 74.445626 174.245980 0.000000 0.000000 0.000000 
7.943351 98.311630 -20.624212 0.000000 0.000000 0.000000 14.451109 4.344592 1.288406 -57.363583 11.388193 17.476448 75.714559 2.424569 -2.066080 15.830022 -1.351750 8.996478 -3.133888 -0.722966 -2.139331 0.000000 0.000000 0.000000 14.024863 2.395574 1.122970 -40.435963 -8.569060 -9.912599 32.832053 -5.424555 1.194941 -2.709044 3.045371 -0.984045 -13.744224 -1.303233 0.775618 0.000000 0.000000 0.000000 15.036822 3.280380 0.614195 9.387892 -0.448826 -4.533102 4.619705 -0.768905 0.570345 0.424291 0.171879 0.711155 0.000000 0.000000 0.000000 4.829541 -0.889593 1.775141 -8.871513 0.889376 0.099633 -26.508753 -3.583760 11.245965 0.000000 0.000000 0.000000 3.337451 -0.650630 1.550486 0.637019 3.180329 25.845429 1.023163 0.700142 -5.408528 -70.848132 -8.041919 -21.085667 171.900234 -82.267948 173.380486 0.000000 0.000000 0.000000 4.879161 -0.916581 0.571925 -3.115194 -10.421361 -16.878620 0.946739 -0.659797 -0.488508 -61.460515 -10.063683 51.474570 178.127577 74.316515 176.578995 0.000000 0.000000 0.000000 
